<?xml version="1.0" encoding="utf-8"?>
<!-- Generator: Adobe Illustrator 26.5.3, SVG Export Plug-In . SVG Version: 6.00 Build 0)  -->
<svg version="1.1" id="Capa_1" xmlns="http://www.w3.org/2000/svg" xmlns:xlink="http://www.w3.org/1999/xlink" x="0px" y="0px"
	 viewBox="0 0 143.4 60.2" style="enable-background:new 0 0 143.4 60.2;" xml:space="preserve">
<style type="text/css">
	.st0{fill:#F0F6E8;}
</style>
<g>
	<g>
		<polygon class="st0" points="99.8,14 101.9,14 101.9,24 106.4,24 106.4,9.4 106.3,9.4 94.5,9.4 92.7,14.4 97.8,14.4 89.6,23.7 
			92.3,15.9 87.3,15.9 89.5,9.4 85.2,9.4 85.2,24 99.8,24 		"/>
		<path class="st0" d="M76.6,17.6c0.8,0.1,1.8,0.5,2.9,1.5V16c0,0-1.3-0.2-2.9,0.6V14h6.6V9.4H72.1V24h4.6V17.6z"/>
		<path class="st0" d="M78,27.1h-5.9v23.7h5.5c6.4,0,8.6-4.4,8.6-12.4C86.3,30.9,83.9,27.1,78,27.1z M77.6,47.7h-1.7V30.2h1.8
			c3.6,0,4.9,2.5,4.9,8.3C82.4,44.9,81.2,47.7,77.6,47.7z"/>
		<polygon class="st0" points="93.3,39.9 101.1,39.9 101.1,36.7 93.3,36.7 93.3,30.3 101.4,30.3 101.4,27.1 89.7,27.1 89.7,50.8 
			101.5,50.8 102,47.6 93.3,47.6 		"/>
		<path class="st0" d="M115.7,27.1l-2.3,10.5c-0.7,3.2-1.7,7-2,9.3h-0.1c-0.3-2.4-1-6.1-1.8-9.3l-2.3-10.5h-4l5.9,23.7h4.3l6-23.7
			L115.7,27.1L115.7,27.1z"/>
		<path class="st0" d="M112.9,19.4v-1.8v0c0.8,0.1,1.8,0.5,2.9,1.5V16c0,0-1.3-0.2-2.9,0.6V14h6.6V9.4h-11.1V24h11.1v-4.6H112.9z"/>
	</g>
	<path class="st0" d="M63.4,31.4c1-4.3,0.1-8.9-2.5-12.7c-2.9-4.1-7.3-6.6-12.7-7.1c-4.6-3.2-12.3-2.5-15.8-0.6
		c-0.2,0.1-0.4,0.4-0.3,0.6c0,0.1,0.1,0.3,0.1,0.4c-1.5,0.3-3.6,1.1-4.7,2.5c-0.1,0.1-0.2,0.3-0.1,0.5c0,0.2,0.1,0.4,0.3,0.5
		c0,0,0.1,0.1,0.2,0.1c-1.1,0.5-2.3,1.3-3.2,2.5c-0.2,0.2-0.2,0.5-0.1,0.7c-0.3,0.3-0.5,0.7-0.7,1c-0.1,0.2-0.1,0.4,0,0.6
		c0.1,0.1,0.3,0.5,0.7,1c0,0,0,0,0,0c-0.2,0.1-0.3,0.4-0.3,0.6c0,0.1,0.3,2.8,2.3,5.7c-0.4,2.3-0.5,4.5-0.3,6.6
		c-1.8,6,0.5,9.8,2.7,11.9c3,2.9,7.6,4.4,12.5,4.4c2.5,0,5.1-0.4,7.4-1.3c0,0,0.1,0,0.1,0c1-0.4,1.8-0.7,2.4-1c0,0,0,0,0.1,0
		c2.5-0.9,4.6-3,5.5-5.6c0.3,0.3,0.6,0.5,1,0.6c1,0.4,2,0.4,3.1-0.1c2.2-1,3.8-3.1,4.6-6C66.6,34.1,65.1,32.1,63.4,31.4z M50.6,31.9
		c0,0-0.7-3.1-3.4-3.8c-2.8-0.8-5.2,0.6-5.2,0.6s-1-2.2,0.9-3.9c0,0-0.1,0.5,0.2,0.9c1.1-0.4,3.8-0.4,5.5,0.6
		C50.1,27.1,51.4,29.2,50.6,31.9z M48.9,37.2c-1.9-0.3-3.8-0.3-5.5,0.9c-0.1,0.1-0.2,0-0.1-0.1c0.2-0.3,0.5-0.5,0.8-0.7
		c0,0-0.1,0-0.1,0.1c-0.5-0.3-0.9-0.8-1-1.4c0,0,0-0.1,0.1,0c0.5,0.6,1.1,0.9,1.6,1.1c0.4-0.2,0.8-0.3,1.3-0.4
		c-0.8-0.4-1.3-1.7-1-3.2c0.1-0.4,0.2-0.7,0.3-1c0.1,0.3,0.3,0.5,0.6,0.5c0.5,0.1,1-0.3,1.1-0.9c0.1-0.4,0-0.9-0.3-1.1
		c0.3-0.1,0.5-0.1,0.8-0.1c0.3,0.1,0.6,0.2,0.8,0.5c-0.3-0.7-0.8-1.3-1.6-1.6c-1.4-0.5-2.6,0.8-3.6,1.7c0.1-0.8,0.6-1.5,1.3-2
		c1.5-1.1,3.7-0.4,4.4,1.2c1,1.9,0.6,4.6-1,6.1C48.1,36.7,48.5,36.9,48.9,37.2z M44.9,41.1c-0.4,0.7-1,1.4-2.8,1.9
		c-1.6,0.5-4.3,0.4-4.3,0.2c0-0.3,4.5,0.2,6.9-2.4c-0.3-0.2-0.9-0.2-0.9-0.4c0,0,1.1-0.2,1.4,0.1c0.3,0.3-0.2,1.3-0.3,1.3
		C44.8,41.9,45,41.4,44.9,41.1z M32.4,34.6c-1-0.2-1.6-1.6-1.3-3.1c0.1-0.3,0.2-0.6,0.3-0.9c0.1,0.3,0.3,0.5,0.6,0.5
		c0.5,0.1,0.9-0.3,1-0.9c0.1-0.4,0-0.8-0.3-1c0.2-0.1,0.5-0.1,0.7-0.1c0.3,0.1,0.6,0.3,0.8,0.5c-0.2-0.7-0.7-1.3-1.5-1.6
		c-1.3-0.4-2.5,0.5-3.2,1.6c0,0.1-0.2,0-0.1-0.1c0.9-2.6,4-3.3,5.3-0.7c0.5,0.9,0.6,2.2,0.3,3.3c0.8-1,3.1-1.2,3.1-1
		c0,0.2-2,0.7-2.7,1.6c-0.6,0.9-0.9,3.1-1.1,3.1c-0.1,0-0.1-1.2,0.1-2.3c-0.7,1.3-2,2.2-3.6,1.8c-0.8-0.3-1.3-0.9-1.5-1.6
		c0-0.1,0.1-0.1,0.1-0.1c0.8,1.1,2.1,1.5,3.2,0.8C32.6,34.7,32.5,34.7,32.4,34.6z M29.4,27.7c0.3-2,1.8-3.3,3-3.4
		c1.7-0.2,2.8,0.5,3.5,1.1c0.2-0.2,0.4-0.8,0.4-0.8c1,1.7-0.3,3.5-0.3,3.5s-1.2-1.7-3.2-2C30.7,25.9,29.4,27.7,29.4,27.7z M39,38.9
		c0,0.4-1.2,1-2.5,1c-1.8,0-2.5-1.8-2.5-1.8C35.6,38.9,39,38.5,39,38.9z M65.1,37.2c-0.6,2.3-2,4.5-4.2,5.6c-1.7,0.7-3.5,0-4-1.6
		c-0.5,2.9-2.7,5.6-5.4,6.6c0.2-0.4,0.7-0.7,1-1c1.6-1.6,3-3.4,3.7-5.5c0.2-0.7,0.4-1.4,0.5-2.2c0,0,0-0.1,0-0.1c0-0.1,0-0.2,0-0.4
		c0-0.1,0.1-0.1,0.1,0c0.1,0.3,0.1,0.7,0.2,1c0.2,0.8,0.5,1.5,1,2c1.6,1.6,3.8-0.1,4.8-1.7c1.6-2.3,2.7-6.8-1.2-7.2
		c-2-0.2-3.3,1.4-4.6,2.9c-0.2,0.4-0.4,1-0.6,1.6c-0.5-0.2-1.3-1.1-1.4-1.6c-0.1-0.4,0.1-1.9,0.9-3.5c0,0-1.2-1.8-1.3-2.6
		c-0.1-0.8-0.3-3.7-0.3-3.7s-5.5-5.2-14.5-5.2c-6.6,0-9.4,2.4-10.6,4.2c-0.5,1.4-0.8,2.9-1,4.3c-0.3,1.9-0.3,3.9-0.2,5.8
		c-0.8,2.5-0.8,5.3,0.2,7.7c2.2,4.9,8.1,6.9,13.3,7c2.7,0.1,5.3-0.4,8-0.8c0.1,0,0.1,0.1,0,0.1c-10.7,4.4-26.5-1-22.4-14
		c-0.2-2.3-0.1-4.6,0.3-6.9C25.4,24.8,25,22,25,22s1.2,0.5,1.9,0.2c-1.3,0-2.4-2-2.4-2c0.3-0.7,1-1.3,1.8-1.8
		c-0.7,0-1.1,0.2-1.1,0.2c1.2-1.6,2.9-2.3,4.1-2.7c-0.6-0.5-1.2-0.9-1.2-0.9c1.3-1.6,4.6-2.4,5.6-2.4c-0.3-0.7-0.9-0.9-0.9-0.9
		c3.3-1.8,10.8-2.5,15.2,0.6c11.2,0.9,17,10.9,14.6,19.5C64.4,32.3,65.9,34.2,65.1,37.2z M60.1,35.4c0.3,0.3,0.8,1.3-0.1,2.5
		c0.1,0.1,0.3,0.3,0.4,0.5c0.6,1.2-1.2,2.1-1.4,2c-0.2,0-0.1-0.1,0-0.1c0,0,1.6-1.1,0.8-1.8c-0.8-0.8-1.6-0.1-1.7-0.5
		c-0.1-0.4,0.4-1.3,0.4-1.3c0.6-1.1,1.3-2.1,2.5-2.5c1.7-0.4,2.3,1.1,1.6,2.4c0,0,0,0,0,0C62.7,34.5,61.3,34.2,60.1,35.4z"/>
</g>
</svg>
